<?xml version="1.0" standalone="no"?>
<!DOCTYPE svg PUBLIC "-//W3C//DTD SVG 20010904//EN"
 "http://www.w3.org/TR/2001/REC-SVG-20010904/DTD/svg10.dtd">
<svg version="1.0" xmlns="http://www.w3.org/2000/svg"
 width="348.000000pt" height="348.000000pt" viewBox="0 0 348.000000 348.000000"
 preserveAspectRatio="xMidYMid meet">

<g transform="translate(0.000000,348.000000) scale(0.100000,-0.100000)"
fill="#000000" stroke="none">
<path d="M1442 3453 c3 -24 8 -28 34 -29 18 -1 48 -11 68 -24 21 -12 40 -20
43 -17 3 3 8 26 10 52 5 37 3 45 -11 45 -11 0 -16 -9 -16 -26 0 -21 -3 -25
-17 -19 -10 4 -33 11 -50 17 -18 5 -33 13 -33 18 0 6 -7 10 -16 10 -11 0 -14
-8 -12 -27z"/>
<path d="M1585 3295 c-21 -9 -49 -24 -60 -35 l-22 -20 -48 21 c-137 61 -272
-6 -356 -175 -52 -107 -69 -204 -51 -307 l12 -71 -29 -36 c-120 -154 -198
-439 -189 -689 l5 -125 52 -103 c61 -121 140 -213 231 -271 61 -39 61 -39 56
-79 -2 -22 -38 -107 -80 -190 -109 -219 -121 -262 -121 -420 0 -103 4 -140 19
-180 38 -100 150 -231 232 -270 16 -8 78 -17 137 -21 l107 -7 69 -63 c130
-117 227 -172 340 -195 52 -10 66 -9 109 6 102 37 181 114 213 208 16 46 20
52 43 49 17 -2 33 5 49 22 14 14 33 26 43 26 29 0 64 28 64 51 0 26 10 24 80
-11 33 -17 79 -33 103 -36 41 -6 44 -4 84 39 52 56 79 109 97 189 16 67 26
195 19 216 -7 16 -36 15 -80 -3 -35 -15 -37 -15 -62 9 -33 32 -105 63 -172 76
-29 6 -54 12 -56 13 -1 2 -10 40 -18 86 -19 96 -58 213 -114 333 l-39 85 75
49 c87 57 199 170 243 246 16 29 40 82 51 118 37 116 37 459 -1 528 -5 9 -18
47 -30 84 -41 130 -143 255 -283 346 -74 48 -181 94 -250 107 -33 6 -35 9 -41
55 -15 115 -132 276 -239 328 -60 30 -139 37 -192 17z m175 -49 c65 -29 151
-119 188 -196 35 -71 52 -150 33 -150 -6 0 -11 -6 -11 -13 0 -9 25 -17 75 -25
135 -21 255 -83 354 -182 105 -105 190 -265 211 -395 12 -78 12 -279 -1 -372
-17 -121 -110 -272 -224 -364 -165 -132 -356 -189 -634 -189 -408 0 -672 130
-826 406 l-50 89 1 145 c2 289 85 575 196 675 34 31 37 37 24 50 -8 8 -17 43
-21 77 -23 213 124 450 279 450 55 0 88 -14 119 -51 39 -47 52 -96 51 -199 -1
-83 -4 -98 -32 -152 -17 -33 -29 -60 -28 -60 2 0 21 6 42 14 22 7 76 14 121
15 131 3 165 20 72 35 -24 4 -51 21 -81 51 -43 43 -45 47 -51 117 -3 40 -14
99 -24 130 l-20 58 23 21 c52 49 128 55 214 15z m-163 -362 c40 -31 35 -44
-18 -44 -40 0 -44 5 -33 48 8 28 10 28 51 -4z m-259 -1508 c102 -30 263 -48
428 -48 173 0 281 12 382 44 62 19 64 19 78 1 52 -70 111 -219 138 -353 21
-108 30 -319 17 -415 -9 -62 -9 -91 1 -129 12 -46 11 -49 -11 -67 -13 -11 -30
-19 -38 -19 -7 0 -27 -10 -42 -21 -32 -23 -51 -19 -51 11 0 11 -5 42 -11 71
l-11 52 -74 -6 c-68 -6 -74 -5 -89 15 -16 24 -21 84 -6 90 5 2 12 64 15 138 3
74 9 190 12 258 5 105 4 122 -9 122 -19 0 -25 -46 -31 -254 -3 -81 -8 -151
-11 -154 -15 -15 -110 113 -203 274 -57 99 -119 197 -138 219 l-34 40 16 -40
c35 -87 139 -284 189 -360 29 -45 83 -108 119 -142 68 -63 77 -81 51 -103 -12
-10 -27 0 -86 60 -123 123 -212 170 -411 214 -16 4 -28 13 -28 21 0 8 -20 53
-45 99 -28 50 -55 121 -69 176 -18 72 -24 86 -28 65 -10 -48 20 -157 71 -260
27 -55 51 -107 54 -116 4 -11 22 -18 56 -22 60 -7 151 -42 227 -88 80 -49 208
-171 250 -239 l36 -59 52 6 c94 12 91 14 94 -42 7 -113 -49 -220 -150 -285
-43 -29 -72 -40 -98 -40 -99 0 -240 73 -383 198 l-67 59 -93 6 c-50 3 -109 11
-129 17 -52 15 -113 64 -175 140 -69 85 -87 141 -87 285 -1 135 15 188 120
395 40 80 78 164 85 187 12 41 12 42 38 29 14 -8 50 -21 79 -30z m1191 -522
c32 -11 66 -32 91 -58 39 -39 41 -40 73 -27 63 26 77 26 77 0 -1 -74 -23 -170
-54 -234 -45 -92 -74 -119 -126 -118 -60 1 -169 43 -190 73 -16 23 -17 30 -4
90 7 36 16 116 20 178 l7 112 27 0 c15 0 51 -7 79 -16z"/>
<path d="M2201 2546 c-19 -22 -4 -56 23 -56 32 0 53 26 39 48 -14 23 -47 27
-62 8z"/>
<path d="M1814 2506 c-12 -32 0 -61 28 -64 34 -4 54 27 38 58 -12 23 -58 27
-66 6z"/>
<path d="M2090 2359 c-138 -18 -195 -33 -198 -53 -7 -34 210 -217 285 -240 19
-6 24 0 43 51 28 73 70 235 63 246 -5 9 -108 7 -193 -4z"/>
</g>
</svg>
